<?xml version="1.0" encoding="UTF-8"?>
<svg width="45px" height="38px" viewBox="0 0 45 38" version="1.1" xmlns="http://www.w3.org/2000/svg" xmlns:xlink="http://www.w3.org/1999/xlink">
    <!-- Generator: Sketch 48.2 (47327) - http://www.bohemiancoding.com/sketch -->
    <title>condense-viewer</title>
    <desc>Created with Sketch.</desc>
    <defs></defs>
    <g id="Page-1" stroke="none" stroke-width="1" fill="none" fill-rule="evenodd">
        <g id="condense-viewer" fill-rule="nonzero">
            <g id="condense">
                <g id="Group" fill="#414042">
                    <path d="M3.9,2.7 C3.8,2.4 3.6,1.8 2.7,1.8 C2.2,1.8 1.4,2.2 1.4,3.7 C1.4,4.7 1.8,5.5 2.7,5.5 C3.3,5.5 3.8,5.1 3.9,4.5 L5,4.5 C4.8,5.7 4,6.5 2.7,6.5 C1.3,6.5 0.2,5.5 0.2,3.7 C0.2,1.8 1.3,0.9 2.7,0.9 C4.3,0.9 5,2 5,2.8 L3.9,2.8 L3.9,2.7 Z" id="Shape"></path>
                    <path d="M8.5,0.8 C9.2,0.8 11.1,1.1 11.1,3.6 C11.1,6.1 9.2,6.4 8.5,6.4 C7.8,6.4 5.9,6.1 5.9,3.6 C5.9,1.1 7.8,0.8 8.5,0.8 Z M8.5,5.5 C9.1,5.5 10,5.1 10,3.6 C10,2.1 9.1,1.7 8.5,1.7 C7.9,1.7 7,2.1 7,3.6 C7,5.2 7.9,5.5 8.5,5.5 Z" id="Shape"></path>
                    <polygon id="Shape" points="15.6 1 16.7 1 16.7 6.4 15.6 6.4 13.4 2.6 13.4 2.6 13.4 6.4 12.3 6.4 12.3 1 13.5 1 15.6 4.8 15.6 4.8"></polygon>
                    <path d="M18,1 L20.4,1 C22.2,1 22.6,2.5 22.6,3.6 C22.6,4.8 22.1,6.4 20.4,6.4 L18,6.4 L18,1 Z M19.1,5.4 L20.2,5.4 C21.1,5.4 21.4,4.5 21.4,3.6 C21.4,2 20.6,1.9 20.2,1.9 L19.1,1.9 L19.1,5.4 Z" id="Shape"></path>
                    <polygon id="Shape" points="27.7 1.9 24.8 1.9 24.8 3 27.4 3 27.4 4 24.8 4 24.8 5.4 27.8 5.4 27.8 6.4 23.7 6.4 23.7 1 27.7 1"></polygon>
                    <polygon id="Shape" points="32.3 1 33.4 1 33.4 6.4 32.3 6.4 30.1 2.6 30.1 2.6 30.1 6.4 29 6.4 29 1 30.2 1 32.3 4.8 32.3 4.8"></polygon>
                    <path d="M35.5,4.7 C35.5,5 35.7,5.6 36.6,5.6 C37.1,5.6 37.7,5.5 37.7,4.9 C37.7,4.5 37.3,4.4 36.7,4.2 L36.1,4.1 C35.2,3.9 34.4,3.7 34.4,2.5 C34.4,1.9 34.7,0.8 36.5,0.8 C38.2,0.8 38.6,1.9 38.6,2.5 L37.5,2.5 C37.5,2.3 37.4,1.7 36.4,1.7 C36,1.7 35.5,1.9 35.5,2.3 C35.5,2.7 35.8,2.8 36.1,2.9 L37.4,3.2 C38.1,3.4 38.8,3.7 38.8,4.6 C38.8,6.2 37.1,6.4 36.7,6.4 C34.7,6.4 34.4,5.3 34.4,4.6 L35.5,4.6 L35.5,4.7 Z" id="Shape"></path>
                    <polygon id="Shape" points="44 1.9 41.1 1.9 41.1 3 43.7 3 43.7 4 41.1 4 41.1 5.4 44.1 5.4 44.1 6.4 40 6.4 40 1 44 1"></polygon>
                </g>
                <g id="Group" transform="translate(8.000000, 12.000000)">
                    <g transform="translate(7.000000, 0.000000)" id="Shape">
                        <polygon fill="#BCBEC0" points="7.2 0.2 13.9 2.8 7.2 5.9 0.4 2.8"></polygon>
                        <polygon fill="#808285" points="0.3 3 7.1 6.1 7.1 14.1 0.3 10.8"></polygon>
                        <polygon fill="#58595B" points="14 3 14 10.8 7.2 14.1 7.2 6.1"></polygon>
                    </g>
                    <g transform="translate(14.000000, 11.000000)" id="Shape">
                        <polygon fill="#BCBEC0" points="7.3 0.1 14 3.4 7.3 6.5 0.5 3.4"></polygon>
                        <polygon fill="#808285" points="0.4 3.5 7.2 6.6 7.2 14.6 0.4 11.3"></polygon>
                        <polygon fill="#58595B" points="14.1 3.5 14.1 11.3 7.3 14.6 7.3 6.6"></polygon>
                    </g>
                    <g transform="translate(0.000000, 11.000000)" id="Shape">
                        <polygon fill="#BCBEC0" points="7 0.1 13.7 3.4 7 6.5 0.2 3.4"></polygon>
                        <polygon fill="#808285" points="0.2 3.5 7 6.6 7 14.6 0.2 11.3"></polygon>
                        <polygon fill="#58595B" points="13.9 3.5 13.9 11.3 7.1 14.6 7.1 6.6"></polygon>
                    </g>
                </g>
            </g>
        </g>
    </g>
</svg>