<?xml version="1.0" encoding="UTF-8"?>
<svg width="39px" height="41px" viewBox="0 0 39 41" version="1.1" xmlns="http://www.w3.org/2000/svg" xmlns:xlink="http://www.w3.org/1999/xlink">
    <!-- Generator: Sketch 48.2 (47327) - http://www.bohemiancoding.com/sketch -->
    <title>explode-viewer</title>
    <desc>Created with Sketch.</desc>
    <defs></defs>
    <g id="Page-1" stroke="none" stroke-width="1" fill="none" fill-rule="evenodd">
        <g id="explode-viewer" fill-rule="nonzero">
            <g id="explode">
                <g id="Group" transform="translate(1.000000, 0.000000)" fill="#414042">
                    <polygon id="Shape" points="4.6 1.9 1.7 1.9 1.7 3 4.3 3 4.3 4 1.7 4 1.7 5.4 4.7 5.4 4.7 6.4 0.6 6.4 0.6 1 4.6 1"></polygon>
                    <polygon id="Shape" points="10.2 6.3 8.8 6.3 7.8 4.5 6.7 6.3 5.4 6.3 7.1 3.5 5.5 0.9 6.8 0.9 7.8 2.6 8.8 0.9 10.1 0.9 8.5 3.5"></polygon>
                    <path d="M12.3,6.3 L11.2,6.3 L11.2,1 L13.7,1 C14.7,1 15.4,1.7 15.4,2.7 C15.4,3.2 15.1,4.4 13.7,4.4 L12.4,4.4 L12.4,6.3 L12.3,6.3 Z M13.4,3.5 C14.2,3.5 14.2,2.9 14.2,2.7 C14.2,2.2 13.9,2 13.2,2 L12.3,2 L12.3,3.6 L13.4,3.6 L13.4,3.5 Z" id="Shape"></path>
                    <polygon id="Shape" points="17.6 5.4 20.3 5.4 20.3 6.4 16.5 6.4 16.5 1 17.6 1"></polygon>
                    <path d="M23.4,0.8 C24.1,0.8 26,1.1 26,3.6 C26,6.1 24.1,6.4 23.4,6.4 C22.7,6.4 20.8,6.1 20.8,3.6 C20.8,1.1 22.7,0.8 23.4,0.8 Z M23.4,5.5 C24,5.5 24.9,5.1 24.9,3.6 C24.9,2.1 24,1.7 23.4,1.7 C22.8,1.7 21.9,2.1 21.9,3.6 C21.9,5.2 22.8,5.5 23.4,5.5 Z" id="Shape"></path>
                    <path d="M27.2,1 L29.6,1 C31.4,1 31.8,2.5 31.8,3.6 C31.8,4.8 31.3,6.4 29.6,6.4 L27.3,6.4 L27.3,1 L27.2,1 Z M28.3,5.4 L29.4,5.4 C30.3,5.4 30.6,4.5 30.6,3.6 C30.6,2 29.8,1.9 29.4,1.9 L28.3,1.9 L28.3,5.4 Z" id="Shape"></path>
                    <polygon id="Shape" points="36.8 1.9 34 1.9 34 3 36.6 3 36.6 4 34 4 34 5.4 37 5.4 37 6.4 32.9 6.4 32.9 1 36.9 1 36.9 1.9"></polygon>
                </g>
                <g id="Group" transform="translate(0.000000, 9.000000)">
                    <polygon id="Shape" fill="#BCBEC0" points="19.7 0.7 25.7 3 19.7 5.7 13.7 3"></polygon>
                    <polygon id="Shape" fill="#808285" points="12.5 4.1 18.9 7 18.9 14.6 12.5 11.5"></polygon>
                    <polygon id="Shape" fill="#58595B" points="26.9 4.1 26.9 11.5 20.5 14.6 20.5 7"></polygon>
                    <polygon id="Shape" fill="#BCBEC0" points="7.9 16.6 14 19.6 7.9 22.4 1.7 19.6"></polygon>
                    <polygon id="Shape" fill="#BCBEC0" points="31.4 16.6 37.5 19.5 31.4 22.3 25.3 19.5"></polygon>
                    <polygon id="Shape" fill="#808285" points="0.8 20.7 7.2 23.6 7.2 31.2 0.8 28.1"></polygon>
                    <polygon id="Shape" fill="#58595B" points="15.1 20.7 15.1 28.1 8.7 31.2 8.7 23.6"></polygon>
                    <polygon id="Shape" fill="#808285" points="24.2 20.7 30.6 23.6 30.6 31.2 24.2 28.1"></polygon>
                    <polygon id="Shape" fill="#58595B" points="38.6 20.7 38.6 28.1 32.2 31.2 32.2 23.6"></polygon>
                </g>
            </g>
        </g>
    </g>
</svg>