<?xml version="1.0" encoding="UTF-8"?>
<svg width="36px" height="34px" viewBox="0 0 36 34" version="1.1" xmlns="http://www.w3.org/2000/svg" xmlns:xlink="http://www.w3.org/1999/xlink">
    <!-- Generator: Sketch 48.2 (47327) - http://www.bohemiancoding.com/sketch -->
    <title>pouch-cells</title>
    <desc>Created with Sketch.</desc>
    <defs></defs>
    <g id="Page-1" stroke="none" stroke-width="1" fill="none" fill-rule="evenodd">
        <g id="pouch-cells" fill="#A7A9AC" fill-rule="nonzero">
            <g id="pouch_cell_link">
                <g id="Group">
                    <path d="M3.4,0.1 L3.4,2.4 C3.4,2.4 5,2.7 5,4.3 L5,16.6 L5,28.9 C5,30.5 3.4,30.8 3.4,30.8 L3.4,33.1 L2.3,33.1 L2.3,30.8 C2.3,30.8 0.7,30.5 0.7,28.9 L0.7,16.6 L0.7,4.3 C0.7,2.7 2.3,2.4 2.3,2.4 L2.3,0.1 L3.4,0.1 Z" id="Shape"></path>
                    <path d="M9.5,0.1 L9.5,2.4 C9.5,2.4 11.1,2.7 11.1,4.3 L11.1,16.6 L11.1,28.9 C11.1,30.5 9.5,30.8 9.5,30.8 L9.5,33.1 L8.4,33.1 L8.4,30.8 C8.4,30.8 6.8,30.5 6.8,28.9 L6.8,16.6 L6.8,4.3 C6.8,2.7 8.4,2.4 8.4,2.4 L8.4,0.1 L9.5,0.1 Z" id="Shape"></path>
                    <path d="M15.6,0.1 L15.6,2.4 C15.6,2.4 17.2,2.7 17.2,4.3 L17.2,16.6 L17.2,28.9 C17.2,30.5 15.6,30.8 15.6,30.8 L15.6,33.1 L14.5,33.1 L14.5,30.8 C14.5,30.8 12.9,30.5 12.9,28.9 L12.9,16.6 L12.9,4.3 C12.9,2.7 14.5,2.4 14.5,2.4 L14.5,0.1 L15.6,0.1 Z" id="Shape"></path>
                    <path d="M21.8,0.1 L21.8,2.4 C21.8,2.4 23.4,2.7 23.4,4.3 L23.4,16.6 L23.4,28.9 C23.4,30.5 21.8,30.8 21.8,30.8 L21.8,33.1 L20.7,33.1 L20.7,30.8 C20.7,30.8 19.1,30.5 19.1,28.9 L19.1,16.6 L19.1,4.3 C19.1,2.7 20.7,2.4 20.7,2.4 L20.7,0.1 L21.8,0.1 Z" id="Shape"></path>
                    <path d="M27.9,0.1 L27.9,2.4 C27.9,2.4 29.5,2.7 29.5,4.3 L29.5,16.6 L29.5,28.9 C29.5,30.5 27.9,30.8 27.9,30.8 L27.9,33.1 L26.8,33.1 L26.8,30.8 C26.8,30.8 25.2,30.5 25.2,28.9 L25.2,16.6 L25.2,4.3 C25.2,2.7 26.8,2.4 26.8,2.4 L26.8,0.1 L27.9,0.1 Z" id="Shape"></path>
                    <path d="M34,0.1 L34,2.4 C34,2.4 35.6,2.7 35.6,4.3 L35.6,16.6 L35.6,28.9 C35.6,30.5 34,30.8 34,30.8 L34,33.1 L32.9,33.1 L32.9,30.8 C32.9,30.8 31.3,30.5 31.3,28.9 L31.3,16.6 L31.3,4.3 C31.3,2.7 32.9,2.4 32.9,2.4 L32.9,0.1 L34,0.1 Z" id="Shape"></path>
                </g>
            </g>
        </g>
    </g>
</svg>